<svg xmlns="http://www.w3.org/2000/svg" xmlns:xlink="http://www.w3.org/1999/xlink" id="svg" width="400" height="110.41009463722398" viewBox="0, 0, 400,110.41009463722398" version="1.1"><g id="svgg"><path id="path0" d="M249.400 16.315 C 242.632 18.252,240.380 27.222,245.401 32.243 C 251.450 38.292,261.663 34.057,261.663 25.500 C 261.663 19.038,255.641 14.528,249.400 16.315 M59.504 18.850 C 59.813 20.502,60.000 25.043,60.000 30.870 L 60.000 37.047 44.458 36.982 L 28.917 36.917 28.872 41.155 C 28.842 44.029,28.885 45.429,29.006 45.503 C 29.104 45.564,35.367 45.578,42.925 45.534 C 50.483 45.490,56.667 45.503,56.667 45.564 C 56.667 46.025,54.324 50.108,52.447 52.917 C 46.146 62.350,36.372 71.627,27.333 76.754 C 26.554 77.196,25.883 77.584,25.842 77.617 C 25.802 77.649,26.259 78.180,26.859 78.796 C 28.146 80.118,29.080 81.348,30.406 83.468 C 31.958 85.951,31.901 85.948,34.908 83.753 C 44.290 76.905,52.843 67.429,58.079 58.083 C 58.798 56.800,59.598 55.375,59.856 54.917 L 60.326 54.083 60.325 60.167 C 60.324 63.512,60.253 69.550,60.168 73.583 C 60.083 77.617,59.961 84.010,59.897 87.792 L 59.780 94.667 64.539 94.667 C 68.659 94.667,69.311 94.632,69.396 94.411 C 69.450 94.271,69.421 89.715,69.332 84.286 C 68.940 60.460,68.838 52.940,68.906 52.872 C 68.945 52.833,69.180 53.201,69.427 53.692 C 74.478 63.722,83.932 74.510,94.651 82.474 C 99.321 85.944,99.126 85.941,100.913 82.583 C 101.890 80.747,102.420 79.954,103.774 78.304 L 104.823 77.024 102.703 75.738 C 92.339 69.450,84.073 62.063,77.349 53.083 C 75.416 50.501,72.635 46.380,72.383 45.722 C 72.289 45.478,73.536 45.461,86.905 45.532 L 101.530 45.609 101.682 45.210 C 101.865 44.728,101.863 37.720,101.680 37.250 C 101.551 36.920,101.395 36.917,85.400 36.917 L 69.250 36.917 69.272 30.083 C 69.295 23.323,69.344 22.593,69.916 20.506 C 70.417 18.680,69.931 18.536,62.225 18.230 L 59.367 18.117 59.504 18.850 M254.372 20.463 C 259.335 22.658,258.373 30.101,253.033 30.827 C 249.179 31.350,246.172 28.308,246.827 24.548 C 247.440 21.029,251.132 19.030,254.372 20.463 M297.542 22.881 C 291.249 30.726,286.772 35.664,276.334 46.272 C 269.966 52.744,269.494 53.431,269.502 56.217 C 269.509 58.681,270.438 60.028,274.333 63.223 C 283.738 70.936,294.118 81.256,301.769 90.500 C 302.755 91.692,303.608 92.667,303.665 92.667 C 303.802 92.667,310.936 86.738,311.081 86.504 C 311.192 86.324,308.907 83.863,303.387 78.221 C 297.556 72.260,289.905 65.306,283.583 60.219 C 278.161 55.857,278.166 55.893,282.560 51.673 C 287.431 46.995,297.449 36.905,300.521 33.583 C 304.998 28.742,307.496 25.935,307.498 25.741 C 307.499 25.644,306.656 24.985,305.625 24.278 C 304.594 23.570,302.841 22.358,301.730 21.585 L 299.709 20.179 297.542 22.881 M351.589 25.728 L 351.711 30.956 347.814 31.067 C 345.670 31.128,341.292 31.253,338.083 31.345 C 334.875 31.436,329.587 31.621,326.333 31.755 C 323.079 31.889,320.173 31.999,319.875 31.999 L 319.333 32.000 319.333 35.750 L 319.333 39.500 320.292 39.498 C 320.819 39.496,322.300 39.424,323.583 39.337 C 329.963 38.903,346.556 38.167,349.958 38.167 L 351.833 38.167 351.834 41.042 C 351.835 42.623,351.884 44.659,351.944 45.566 L 352.053 47.216 351.652 47.123 C 351.431 47.072,350.700 46.831,350.027 46.588 C 343.987 44.402,336.468 46.218,332.782 50.754 C 328.745 55.723,328.941 64.595,333.191 69.245 C 337.747 74.230,347.697 74.764,352.875 70.303 C 354.015 69.321,354.079 69.459,353.409 71.454 C 351.114 78.292,341.963 83.197,329.208 84.427 C 327.682 84.574,327.598 84.255,330.326 88.667 L 332.646 92.417 333.281 92.389 C 337.491 92.207,347.986 88.394,352.480 85.414 C 361.007 79.758,364.466 67.877,360.758 56.980 L 360.169 55.250 360.168 46.598 L 360.167 37.946 368.125 38.056 C 372.502 38.117,377.002 38.215,378.125 38.275 L 380.167 38.384 380.167 34.609 L 380.167 30.833 370.236 30.833 L 360.306 30.833 360.427 25.667 L 360.548 20.500 356.008 20.500 L 351.468 20.500 351.589 25.728 M210.906 22.875 C 210.655 23.540,210.048 25.133,209.558 26.415 C 209.068 27.697,208.667 28.793,208.667 28.850 C 208.667 28.906,209.585 29.042,210.708 29.151 C 217.772 29.836,226.629 31.428,234.583 33.444 C 236.233 33.862,237.734 34.238,237.919 34.280 C 238.212 34.348,240.073 30.357,241.461 26.684 C 241.555 26.435,234.053 24.778,228.583 23.840 C 223.594 22.984,213.298 21.667,211.598 21.667 C 211.459 21.667,211.176 22.160,210.906 22.875 M145.743 23.958 C 143.315 35.527,129.370 54.772,115.096 66.253 C 113.205 67.774,113.227 67.703,114.542 68.067 C 115.799 68.415,118.236 69.547,119.589 70.413 C 121.592 71.694,121.914 71.596,125.351 68.652 C 130.506 64.237,136.258 58.119,140.934 52.078 L 143.037 49.360 144.393 49.266 C 146.636 49.111,163.672 48.783,163.782 48.893 C 164.528 49.639,156.661 61.546,152.055 66.644 L 151.247 67.538 148.381 65.394 C 144.739 62.671,141.604 60.667,140.985 60.667 C 140.551 60.667,134.833 65.930,134.833 66.329 C 134.833 66.397,135.752 67.079,136.875 67.843 C 144.882 73.294,151.640 79.374,156.781 85.750 C 159.156 88.696,158.959 88.677,161.933 86.245 C 165.645 83.209,166.433 82.104,165.628 81.064 C 164.411 79.490,161.947 76.774,159.882 74.732 L 157.505 72.380 157.856 72.065 C 158.050 71.892,159.046 70.775,160.070 69.583 C 165.199 63.618,168.716 58.597,172.238 52.213 C 172.957 50.909,174.098 49.150,174.773 48.305 C 176.508 46.132,176.440 45.569,174.195 43.484 C 170.563 40.109,168.868 39.289,167.145 40.075 C 165.777 40.698,164.594 40.815,157.833 40.996 C 154.396 41.088,150.705 41.191,149.632 41.224 L 147.681 41.285 148.125 40.518 C 148.370 40.095,149.072 38.915,149.685 37.895 C 150.299 36.874,151.196 35.299,151.679 34.395 C 152.760 32.372,153.252 31.698,154.595 30.406 C 156.941 28.149,155.773 27.011,148.380 24.352 C 145.591 23.349,145.863 23.390,145.743 23.958 M221.745 37.537 C 213.715 46.068,214.062 53.539,222.920 62.833 C 228.778 68.981,230.396 71.918,230.401 76.417 C 230.404 79.878,229.500 81.699,227.286 82.684 C 224.994 83.704,218.417 83.133,213.461 81.484 C 212.386 81.126,211.467 80.833,211.420 80.833 C 211.301 80.833,211.348 86.500,211.478 87.833 L 211.583 88.917 213.500 89.548 C 228.300 94.427,239.273 89.610,239.621 78.083 C 239.842 70.744,237.473 65.827,229.980 58.077 C 222.732 50.582,222.587 46.984,229.316 41.600 C 229.636 41.344,229.817 41.088,229.732 41.009 C 229.546 40.834,223.937 36.743,223.422 36.405 C 223.057 36.166,222.997 36.207,221.745 37.537 M346.333 52.175 C 350.188 52.790,352.014 55.365,351.794 59.876 C 351.378 68.389,338.827 69.084,337.665 60.659 C 336.885 55.005,340.696 51.276,346.333 52.175 M245.528 53.749 C 243.389 54.423,241.533 55.016,241.403 55.066 C 241.211 55.139,241.248 55.337,241.601 56.120 C 245.388 64.505,248.450 75.647,249.689 85.548 C 249.816 86.568,249.960 87.154,250.071 87.112 C 250.170 87.075,252.077 86.455,254.311 85.736 C 256.544 85.016,258.410 84.327,258.457 84.205 C 258.681 83.622,256.469 73.235,254.917 67.583 C 253.377 61.976,249.966 52.458,249.517 52.512 C 249.462 52.518,247.667 53.075,245.528 53.749 M202.256 55.875 C 202.219 55.990,201.992 57.396,201.751 59.000 C 200.541 67.068,197.938 76.419,195.026 83.152 C 194.273 84.893,194.273 84.869,195.038 85.173 C 195.338 85.292,197.035 86.018,198.809 86.788 C 200.584 87.557,202.065 88.157,202.102 88.121 C 202.246 87.976,203.575 84.806,204.282 82.917 C 206.950 75.789,208.986 68.445,210.264 61.342 C 210.744 58.671,210.734 58.893,210.375 58.783 C 210.215 58.735,208.400 58.013,206.343 57.181 C 202.322 55.553,202.356 55.564,202.256 55.875 " stroke="none" fill="#FF2B63" fill-rule="evenodd"/></g></svg>